<?xml version="1.0" encoding="utf-8"?>
<!-- Generator: Adobe Illustrator 21.0.0, SVG Export Plug-In . SVG Version: 6.00 Build 0)  -->
<svg version="1.1" id="Layer_1" xmlns="http://www.w3.org/2000/svg" xmlns:xlink="http://www.w3.org/1999/xlink" x="0px" y="0px"
	 viewBox="0 0 288 88.6" enable-background="new 0 0 288 88.6" xml:space="preserve">
<path fill="#FFFFFF" d="M22.4,31.8c-2.9,0-3.8,0.4-3.8,2.7v18.8c0,0.9,0.3,6.8,1.3,7.9c1.2,1.3,4.5,2,7.9,2c8,0,13.9-5.5,13.9-14.6
	C41.6,39.2,33.8,31.8,22.4,31.8 M25.8,2.5c-6.9,0-7.2,0.9-7.2,3v22.8c0,1.7,1.4,1.5,3.9,1.5c6.4,0,10.8,0.6,10.8,0.6
	c3-2.3,6.5-4.3,6.5-12.6C39.8,12.6,35.4,2.5,25.8,2.5 M27.2,65.1c-4.4,0-8.8-1-13.4-1c-4.4,0-6.7,0.4-10.1,0.4
	c-1.1,0-1.8-0.1-1.8-1.2c0-1.1,0.6-1.3,2.9-1.3c4.7,0,4.9-0.2,4.9-1.8V12c0-8.3-1.7-9.2-4.6-9.2C0.4,2.7,0,2.6,0,1.4
	c0-0.7,0.3-0.8,2.1-0.8c3.3,0,6.5,0.1,10.2,0.1C14.5,0.6,19.5,0,29,0c13.7,0,19.5,7,19.5,14.5c0,7.5-4.5,11.1-7.9,13.4
	c-2,1.4-4.3,2.5-4.3,2.8c0,0.2,2,0.7,4.1,1.8c4.9,2.5,11.1,6.1,11.1,15.2C51.6,59.5,41.8,65.1,27.2,65.1"/>
<path fill="#FFFFFF" d="M71,28.1c-6.9,0-9.1,10.4-9.1,11.7c0,0.5,0,0.5,1.1,0.5c4.8,0,9.7-1.2,16.5-2.3c1-0.2,1.1-0.4,1.1-0.9
	C80.6,34.8,75.2,28.1,71,28.1 M85,39c-2.4,0.5-11.5,2.6-21.9,3.2c-1.5,0.1-1.7,0.5-1.7,2.6c0,12.6,9.8,16,16.7,16
	c6,0,9.3-2.2,9.9-2.2c0.5,0,0.7,0.5,0.7,0.7c0,0.5-7.8,6.2-15.2,6.2c-7.5,0-18.6-3.7-18.6-18.9c0-12.9,8.7-20.6,17-20.6
	c4.8,0,10.6,3,13.9,6.9c1.6,1.8,3,4,3,4.7C88.8,38.1,87.5,38.5,85,39"/>
<path fill="#FFFFFF" d="M118.5,36.6c-1.3,0-2.4-3.7-6.9-3.7c-5.3,0-7.3,2.2-7.3,6v18.8c0,4.5,0.3,4.5,7,4.5c2.4,0,2.5,0.3,2.5,1.1
	c0,1-0.1,0.9-2.5,0.9c-1.3,0-7.4-0.5-10.3-0.5c-3.1,0-6.2,0.5-7.5,0.5c-2.1,0-2.3,0-2.3-0.9s0.1-1.1,2.3-1.1c3.7,0,4-0.1,4-1.4v-25
	c0-6.2,0.2-6.4-4.9-6.4c-1.6,0-1.6,0.1-1.6-0.9c0-1.1-0.1-1.4,1.5-1.4c3.1,0,4.8,0.2,6.7,0.2c1.5,0,3.2-0.5,4.7-0.5
	c0.4,0,0.7,0.3,0.7,1c0,0.5-0.2,2.5-0.2,2.7c0,0.8,0.1,1.5,0.5,1.5c1.4,0,5.7-4.8,10-4.8c1.6,0,5.8,2,5.8,4.4
	C120.5,32.5,119,36.6,118.5,36.6"/>
<path fill="#FFFFFF" d="M161.7,64.5c-1.1,0-2.3-0.1-3.1-0.1c-1.1,0-3.8,0.1-5.1,0.1c-1.6,0-2.5-2.3-6.3-6.7
	c-3.8-4.4-7.7-10.1-8.2-10.1c-0.4,0-1.6,0.9-3.2,1.9c-1.5,0.9-2.7,1.6-2.7,2.4v5.8c0,4.3-0.2,4.3,5.5,4.3c2.1,0,2.5,0.5,2.5,1.2
	c0,0.9-0.5,0.9-2.5,0.9c-1.4,0-5.6-0.2-8.5-0.2c-3.1,0-6.5,0.2-7.8,0.2c-2.1,0-2.6-0.1-2.6-0.9c0-0.7,0.5-1.2,2.6-1.2
	c3.1,0,3.9,0,3.9-1.4c0-2.6,0.3-29.7,0.3-49c0-6.5-0.7-7.3-3.2-7.3c-3.7,0-4.1-0.3-4.1-0.9c0-0.9,0.2-1.3,1.2-1.3c6.6,0,12-2,12.8-2
	c0.5,0,0.6,0.3,0.6,0.8c0,1.2-0.2,5-0.2,7.9c0,13.9-0.5,24.1-0.5,39c0,0.4,0.1,0.6,0.4,0.6c2.3,0,11.8-8.4,14.7-11.1
	c3.6-3.4,4.4-4.9,4.4-6.8c0-1.5-0.3-1.6-4.3-1.6c-1.4,0-1.8-0.2-1.8-1c0-0.7,0.5-0.9,1.6-0.9c0.9,0,2.6,0.3,3.7,0.3
	c1.2,0,6.5-0.3,7.6-0.3c0.7,0,1.1,0.1,1.1,0.4c0,0.8-3.1,4.8-5.9,7.5c-4.6,4.5-10.2,8.5-10.2,9.1c0,0.8,1.6,2.6,8,10.2
	c3.1,3.7,6,8.2,9.1,8.2c2.2,0,2.9,0.5,2.9,1.2C164.3,64.3,163.7,64.5,161.7,64.5"/>
<path fill="#FFFFFF" d="M177.5,28.1c-6.9,0-9.1,10.4-9.1,11.7c0,0.5,0,0.5,1.1,0.5c4.7,0,9.7-1.2,16.5-2.3c1-0.2,1.1-0.4,1.1-0.9
	C187.1,34.8,181.7,28.1,177.5,28.1 M191.6,39c-2.4,0.5-11.5,2.6-21.9,3.2c-1.5,0.1-1.7,0.5-1.7,2.6c0,12.6,9.8,16,16.7,16
	c6,0,9.3-2.2,9.9-2.2c0.5,0,0.7,0.5,0.7,0.7c0,0.5-7.8,6.2-15.2,6.2c-7.5,0-18.6-3.7-18.6-18.9c0-12.9,8.7-20.6,17-20.6
	c4.8,0,10.6,3,13.9,6.9c1.6,1.8,3,4,3,4.7C195.3,38.1,194,38.5,191.6,39"/>
<path fill="#FFFFFF" d="M211.7,64.2c-1.4,0-3.4-0.2-5-0.2c-3.1,0-7.9,0.2-9.2,0.2c-2.1,0-2.3-0.2-2.3-0.9c0-0.6,0.1-1.2,2.3-1.2
	c3.7,0,5.3,0.1,5.3-1.6V10.2c0-5.8-0.5-5.8-4.7-5.8c-1.6,0-2.6-0.2-2.6-1.2c0-1.1,0.7-1,2.3-1.1c7.1-0.5,10.6-2,11.1-2
	c0.5,0,0.9,0.5,0.9,1.5c0,1.1-0.5,4.4-0.5,7.1c0,34.8-0.5,42-0.5,44.7c0,7.6,0.6,8.6,2.3,8.6c4.6,0,4.4,0.5,4.4,1.3
	C215.6,64.2,215,64.2,211.7,64.2"/>
<path fill="#FFFFFF" d="M230.2,28.1c-6.9,0-9.1,10.4-9.1,11.7c0,0.5,0,0.5,1.1,0.5c4.8,0,9.7-1.2,16.5-2.3c1-0.2,1.1-0.4,1.1-0.9
	C239.8,34.8,234.4,28.1,230.2,28.1 M244.2,39c-2.4,0.5-11.5,2.6-21.9,3.2c-1.5,0.1-1.7,0.5-1.7,2.6c0,12.6,9.8,16,16.7,16
	c6,0,9.3-2.2,9.9-2.2c0.5,0,0.7,0.5,0.7,0.7c0,0.5-7.8,6.2-15.2,6.2c-7.5,0-18.6-3.7-18.6-18.9c0-12.9,8.7-20.6,17-20.6
	c4.8,0,10.6,3,13.9,6.9c1.6,1.8,3,4,3,4.7C248,38.1,246.7,38.5,244.2,39"/>
<path fill="#FFFFFF" d="M285.6,29.3c-2,0-6,11-13.2,28.5c-5.8,14-9.9,21.4-12.8,27.4c-1,2-2.1,2.1-4.1,2.4c-2.7,0.4-3.4,1.1-5.4,1.1
	c-1.6,0-2.5-0.5-2.5-0.9c0-0.5,4.3-1.1,7.4-5c3.3-4.1,11.1-14.9,11.1-17.6c0-1-7.3-17.9-12.3-29.8c-2.3-5.5-2.9-5.9-4.6-5.9
	c-1.8,0-1.9-0.1-1.9-0.9c0-0.8,0.3-1.3,1.9-1.3c2.6,0,3.2,0.2,5.4,0.2c2.6,0,5.8-0.3,8.7-0.3c1.9,0,2.3,0.4,2.3,1.4
	c0,0.8-0.4,0.9-2.3,0.9c-2.2,0-2.7,0.5-2.7,2.6c0,2.6,2.4,5.8,7.9,19.9c0.7,1.9,1.8,3.5,2.2,3.5c0.6,0,1.2-1.3,2.6-5.6
	c2.2-6.6,5.5-16.1,5.5-17.4c0-2.7,0-3.3-3.1-3.3c-2.8,0-3.2,0-3.2-0.9c0-1.2,0.3-1.2,1.9-1.2c2.5,0,4.1,0.2,6.6,0.2
	c1.4,0,3.8-0.4,5.1-0.4c1.5,0,1.9,0.1,1.9,1.1C288,28.8,286.7,29.3,285.6,29.3"/>
<path fill="#FFFFFF" d="M12.4,87.3c-3,0-4.5-1.7-4.5-4.4v-8h2.1V83c0,1.5,0.6,2.5,2.4,2.5c1.7,0,2.4-1,2.4-2.5v-8.1h2.1v8
	C16.9,85.6,15.4,87.3,12.4,87.3"/>
<polygon fill="#FFFFFF" points="27.2,87.1 22.1,78.9 22,78.9 22,87.1 19.9,87.1 19.9,75.1 22,74.9 26.9,82.9 27,82.9 27,74.9 
	29.1,74.9 29.1,87.1 "/>
<rect x="32.1" y="74.9" fill="#FFFFFF" width="2.1" height="12.2"/>
<path fill="#FFFFFF" d="M42.9,87.1h-2.3l-4.2-12.2h2.2l2.3,6.8c0,0,0.2,0.7,0.8,2.8h0.1c0.6-2.1,0.8-2.8,0.8-2.8l2.3-6.8h2.1
	L42.9,87.1z"/>
<polygon fill="#FFFFFF" points="56.6,87.1 49.2,87.1 49.2,74.9 56.4,74.9 56.4,76.7 51.3,76.7 51.3,80 55.9,80 55.9,81.8 51.3,81.8 
	51.3,85.3 56.8,85.3 "/>
<path fill="#FFFFFF" d="M63.4,76.7h-1.7v3.7h1.8c1.3,0,1.9-0.7,1.9-1.9C65.3,77.4,64.9,76.7,63.4,76.7 M66,87.1l-1.7-3.4
	c-0.4-0.7-0.8-1.4-1.6-1.4h-1v4.9h-2.1V74.9h3.9c2.7,0,4,1.5,4,3.6c0,1.5-0.7,2.7-2.3,3.3v0c0.4,0.2,0.6,0.6,0.7,0.8l2.3,4.4H66z"/>
<path fill="#FFFFFF" d="M73.8,87.3c-1.7,0-3-0.7-4-1.4l0.9-1.6c1,0.7,2.2,1.1,3.1,1.1c1.4,0,2.1-0.8,2.1-1.7c0-2.3-5.4-1.6-5.4-5.7
	c0-2.2,1.8-3.5,4-3.5c1.3,0,2.5,0.4,3.5,1.1l-0.8,1.5c-0.9-0.5-1.7-0.8-2.8-0.8c-1.2,0-1.8,0.7-1.8,1.6c0,2.8,5.4,1.5,5.4,5.7
	C78.1,85.8,76.1,87.3,73.8,87.3"/>
<rect x="80.6" y="74.9" fill="#FFFFFF" width="2.1" height="12.2"/>
<polygon fill="#FFFFFF" points="93.6,76.7 90.5,76.7 90.5,87.1 88.4,87.1 88.4,76.7 85.2,76.7 85.2,74.9 93.8,74.9 "/>
<path fill="#FFFFFF" d="M101.1,81.9v5.2H99v-5.2l-3.9-7h2.4l1.6,3.5c0,0,0.2,0.4,0.9,1.8h0.1c0.6-1.4,0.8-1.8,0.8-1.8l1.7-3.5h2.3
	L101.1,81.9z"/>
<path fill="#FFFFFF" d="M117.5,76.5c-2.1,0-3.1,1.8-3.1,4.5c0,2.7,1,4.5,3.1,4.5c2.1,0,3.1-1.9,3.1-4.5
	C120.6,78.3,119.6,76.5,117.5,76.5 M117.5,87.3c-3.7,0-5.3-2.8-5.3-6.3c0-3.7,1.6-6.3,5.3-6.3c3.7,0,5.3,2.6,5.3,6.3
	C122.8,84.5,121.2,87.3,117.5,87.3"/>
<polygon fill="#FFFFFF" points="127.7,76.7 127.7,80 132.2,80 132.2,81.8 127.7,81.8 127.7,87.1 125.5,87.1 125.5,74.9 132.7,74.9 
	132.7,76.7 "/>
<path fill="#FFFFFF" d="M146.1,87.3c-3.8,0-5.4-2.5-5.4-6.3c0-3.7,1.8-6.3,5.5-6.3c1.5,0,2.8,0.5,4.1,1.6l-1.1,1.4
	c-0.9-0.8-1.8-1.2-3-1.2c-2.2,0-3.3,1.6-3.3,4.5c0,2.9,1.1,4.5,3.3,4.5c1.1,0,2.2-0.5,3.2-1.4l1.1,1.4
	C149.2,86.6,147.7,87.3,146.1,87.3"/>
<path fill="#FFFFFF" d="M158,80c0,0-0.1-0.4-1-2.9h0c-0.8,2.5-1,2.9-1,2.9l-0.9,2.7h3.9L158,80z M160.5,87.1l-1-2.9h-4.9l-1,2.9h-2
	l4.3-12l2.5-0.2l4.3,12.2H160.5z"/>
<polygon fill="#FFFFFF" points="171.6,87.1 164.4,87.1 164.4,74.9 166.5,74.9 166.5,85.3 171.8,85.3 "/>
<rect x="173.9" y="74.9" fill="#FFFFFF" width="2.1" height="12.2"/>
<polygon fill="#FFFFFF" points="180.9,76.7 180.9,80 185.3,80 185.3,81.8 180.9,81.8 180.9,87.1 178.7,87.1 178.7,74.9 185.9,74.9 
	185.9,76.7 "/>
<path fill="#FFFFFF" d="M192.5,76.5c-2.1,0-3.1,1.8-3.1,4.5c0,2.7,1,4.5,3.1,4.5c2.1,0,3.1-1.9,3.1-4.5
	C195.7,78.3,194.7,76.5,192.5,76.5 M192.5,87.3c-3.7,0-5.3-2.8-5.3-6.3c0-3.7,1.6-6.3,5.3-6.3c3.7,0,5.3,2.6,5.3,6.3
	C197.9,84.5,196.2,87.3,192.5,87.3"/>
<path fill="#FFFFFF" d="M203.6,76.7h-1.7v3.7h1.8c1.3,0,1.9-0.7,1.9-1.9C205.5,77.4,205,76.7,203.6,76.7 M206.1,87.1l-1.7-3.4
	c-0.4-0.7-0.8-1.4-1.6-1.4h-1v4.9h-2.1V74.9h3.9c2.7,0,4,1.5,4,3.6c0,1.5-0.7,2.7-2.3,3.3v0c0.4,0.2,0.6,0.6,0.7,0.8l2.3,4.4H206.1z
	"/>
<polygon fill="#FFFFFF" points="217.4,87.1 212.2,78.9 212.2,78.9 212.2,87.1 210.1,87.1 210.1,75.1 212.1,74.9 217.1,82.9 
	217.2,82.9 217.2,74.9 219.3,74.9 219.3,87.1 "/>
<rect x="222" y="74.9" fill="#FFFFFF" width="2.1" height="12.2"/>
<path fill="#FFFFFF" d="M232.2,80c0,0-0.1-0.4-1-2.9h0c-0.8,2.5-1,2.9-1,2.9l-0.9,2.7h3.9L232.2,80z M234.7,87.1l-1-2.9h-4.9l-1,2.9
	h-2l4.3-12l2.5-0.2l4.3,12.2H234.7z"/>
</svg>
