<?xml version="1.0" encoding="utf-8"?>
<!-- Generator: Adobe Illustrator 21.0.0, SVG Export Plug-In . SVG Version: 6.00 Build 0)  -->
<svg version="1.1" xmlns="http://www.w3.org/2000/svg" xmlns:xlink="http://www.w3.org/1999/xlink" x="0px" y="0px"
	 viewBox="0 0 321.9 320.4" enable-background="new 0 0 321.9 320.4" xml:space="preserve">
<g id="Layer_2">
	<rect x="-83.6" y="-34.4" display="none" fill="#7F55FF" width="483" height="434"/>
</g>
<g id="Layer_1">
	<path fill="#FFFFFF" d="M266.6,110c0.5,0,0.8-0.2,1.2-0.4c17.7-10.3,35.4-20.5,53.1-30.8c0.6-0.3,0.8-0.7,0.8-1.4
		c0-3.2,0-6.5,0.1-9.7c0.1-1.2-0.3-1.8-1.2-2.4c-19.7-13.3-39.3-26.7-59-40C249.4,17,237.2,8.7,224.9,0.4c-0.4-0.3-0.8-0.5-1.3-0.3
		c-2.1,0.5-4.3,0.9-6.5,1.3c-0.8,0.1-1,0.5-1,1.2c0,4.7,0,9.4,0,14.2c0,0.8,0.2,1.2,0.9,1.6c26.2,15.6,52.4,31.1,78.7,46.7
		c0.6,0.4,1.1,0.5,1.8,0.2c3-1.2,6.1,0.4,7,3.4c0.9,3.1-0.8,6.2-3.8,6.9c-3.2,0.7-6.1-1.2-6.5-4.5c-0.1-0.9-0.5-1.2-1.1-1.6
		c-23.4-13.9-46.7-27.8-70.1-41.7c-2.2-1.3-4.4-2.6-6.8-4c0,0.6,0,1.1,0,1.5c0,7.4,0,14.9,0,22.3c0,0.9,0.3,1.3,1,1.8
		c16.3,9.4,32.6,18.7,48.9,28.1c0.6,0.3,1,0.4,1.7,0.2c3.1-0.9,6.2,0.9,6.8,4c0.6,3.2-1.4,6.3-4.5,6.6c-3.3,0.4-5.9-1.9-6-5.1
		c0-0.7-0.2-1-0.8-1.4c-15.3-8.8-30.6-17.6-46-26.5c-0.3-0.2-0.5-0.5-1-0.3c0,9.6,0,19.3,0,28.9c0,0.6,0.3,0.9,0.8,1.2
		c3,1.7,6,3.4,9,5.2c0.5,0.3,0.9,0.3,1.4,0.1c2.3-1.1,4.8-0.6,6.3,1.2c1.6,1.8,1.8,4.6,0.6,6.6c-1.2,1.9-3.3,2.8-5.6,2.4
		c-2.1-0.4-3.7-1.9-4.1-4.1c-0.2-0.9-0.5-1.4-1.3-1.8c-2.1-1.1-4.2-2.4-6.2-3.5c-0.2-0.1-0.4-0.5-0.8-0.3c0,0.2,0,0.5,0,0.7
		c0,3.4,0,6.7,0,10.1c0,0.6,0.2,0.9,0.6,1.3c2.5,2.1,2.7,5.9,0.4,8.1c-2.1,2.2-5.8,2.1-7.8-0.2c-2.1-2.4-1.7-6.1,0.8-8.1
		c0.5-0.4,0.7-0.8,0.7-1.4c0-3.7,0-7.4,0-11c0-1,0.6-2.2-0.5-3.2c-0.1,0,0-0.3,0.1-0.4c0.5-0.6,0.4-1.4,0.4-2.1c0-9.3,0-18.6,0-28
		c0-17.6,0-35.3,0-52.9c0-1-0.1-1.3-1.3-1.1c-6.8,1.4-13.5,2.7-20.3,4c-0.9,0.2-1.3,0.4-1.3,1.5c0.1,3.4,0.1,6.7,0.2,10.1
		c0.1,7.3,0.2,14.6,0.2,21.9c0.1,7.2,0.2,14.3,0.2,21.5c0.1,9.9,0.2,19.8,0.3,29.7c0,0.7,0.2,1.1,0.8,1.6c2.4,2,2.6,5.8,0.4,8
		c-2.2,2.2-5.8,2.2-7.8-0.1c-2.1-2.4-1.8-6.1,0.7-8.1c0.5-0.4,0.7-0.7,0.7-1.4c-0.1-6-0.2-12.1-0.2-18.1c-0.1-6.8-0.2-13.7-0.2-20.5
		c-0.1-8.4-0.2-16.7-0.2-25.1c-0.1-6.3-0.2-12.6-0.2-18.8c0-0.7-0.1-1-0.9-0.8c-3.8,0.8-7.6,1.5-11.4,2.3
		c-16.1,3.2-32.3,6.3-48.4,9.5c-10.9,2.1-21.8,4.3-32.7,6.4c-0.8,0.2-1,0.4-1,1.2c0.2,2.6,0.3,5.3,0.4,7.9c0,0.7,0.3,0.9,0.9,0.8
		c2.4-0.2,4.9-0.3,7.3-0.4c12.2-0.6,24.3-1.1,36.5-1.7c6.7-0.3,13.5-0.6,20.2-0.9c0.9,0,1.4-0.3,2-1c2-2.2,5.4-2.2,7.5-0.2
		c2.2,2.1,2.2,5.8,0.1,7.9c-2.1,2.1-5.7,2.2-7.5-0.1c-1.2-1.5-2.4-1.6-3.9-1.4c-0.9,0.1-1.8,0.1-2.6,0.1
		c-11.4,0.5-22.8,1.1-34.2,1.6c-8.3,0.4-16.7,0.8-25,1.1c-0.7,0-1,0.2-1,1c0.2,2.9,0.3,5.9,0.4,8.9c0,0.8,0.3,1.1,1.2,1.2
		c10.6,0.7,21.3,1.5,31.9,2.2c11.4,0.8,22.8,1.6,34.2,2.4c0.9,0.1,1.1,0.3,1.2,1.2c0.4,9.9,0.9,19.9,1.3,29.8c0,0.9,0.2,1.7,1,2.4
		c2.3,1.9,2.3,5.8,0.2,7.9c-2.2,2.2-5.8,2-7.8-0.3c-2-2.3-1.7-6.1,0.7-7.9c0.7-0.5,0.8-1,0.7-1.7c-0.4-8.4-0.8-16.8-1.2-25.3
		c0-1-0.3-1.2-1.3-1.3c-7.4-0.5-14.8-1-22.2-1.5c-8.5-0.6-17.1-1.2-25.6-1.8c-6.1-0.4-12.2-0.8-18.3-1.2c-0.7,0-1-0.3-1-1.1
		c-0.1-2.4-0.2-4.8-0.3-7.2c-0.3-6.9-0.7-13.7-0.9-20.6c0-0.9-0.3-1-1.1-0.8c-6.1,1.2-12.1,2.4-18.2,3.5c-1,0.2-1.4,0.5-1.3,1.6
		c0.4,6.8,0.7,13.6,1.1,20.3c0.3,6.5,0.7,12.9,1,19.4c0,0.6,0.1,0.9,0.8,0.9c6.6,0.3,13.2,0.6,19.8,1c7.7,0.4,15.4,0.8,23.1,1.2
		c0.7,0,1.3,0.1,1.8-0.7c1.2-1.9,3.6-2.6,5.8-2c2.2,0.7,3.7,2.6,3.7,5c0.1,2.5-1.3,4.5-3.5,5.3c-2.2,0.8-4.6,0.1-6-1.8
		c-0.3-0.5-0.7-0.7-1.3-0.7c-4.6-0.2-9.2-0.5-13.8-0.7c-9.6-0.5-19.2-0.9-28.8-1.5c-1.1-0.1-1.5,0.1-1.4,1.3c0.3,4.5,0.5,9,0.7,13.5
		c0,0.8,0.3,1,1,1c4.7,0.4,9.3,0.8,14,1.3c9.8,0.9,19.7,1.8,29.5,2.8c0.6,0.1,1,0,1.5-0.4c2.7-1.9,6.2-1.1,7.7,1.6
		c1.6,2.8,0.6,6.5-2.3,7.8c-2.9,1.4-6.1,0-7.3-3.1c-0.2-0.6-0.5-0.8-1.1-0.8c-4.6-0.4-9.2-0.8-13.7-1.2c-11-1-22-2.1-32.9-3.1
		C61.5,99.2,61,99.1,61,98c-0.3-7.7-0.8-15.5-1.2-23.2C59.2,63,58.6,51.1,58,39.2c-0.1-1.5-0.2-3-0.3-4.7c-4.1,5-8,9.9-11.9,14.7
		c-0.3,0.4-0.3,0.8-0.2,1.2c0.4,7.2,0.8,14.4,1.2,21.5c0.7,12.2,1.4,24.3,2.1,36.5c0.6,10.8,1.2,21.6,1.8,32.4c0,0.8,0.3,1.3,1,1.8
		c2.5,1.7,2.9,5.3,1.1,7.8c-1.8,2.3-5.2,2.7-7.6,0.9c-2.3-1.8-2.8-5.7-0.7-7.7c1-1,1.2-2,1.1-3.3c0-0.4-0.1-0.7-0.1-1.1
		c-0.7-12.4-1.4-24.9-2.1-37.3c-0.8-14.1-1.6-28.2-2.4-42.2c-0.1-1.3-0.2-2.6-0.3-4c-0.2,0.2-0.3,0.2-0.4,0.3
		c-4.8,5.9-9.6,11.8-14.4,17.7c-0.3,0.4-0.4,0.9-0.3,1.3c0.3,4.8,0.6,9.6,0.9,14.5c0.6,10.6,1.3,21.1,1.9,31.7
		c0.6,10.5,1.3,21.1,1.9,31.6c0.5,7.9,1,15.8,1.4,23.7c0,0.7,0.3,1.2,0.9,1.6c1.9,1.2,2.6,3,2.5,5.1c-0.2,2.6-1.9,4.3-4.3,4.8
		c-2.2,0.4-4.5-0.6-5.6-2.6c-1.2-2.1-1-4.8,0.7-6.6c0.6-0.6,0.7-1.1,0.7-1.9c-0.3-4.6-0.6-9.2-0.8-13.8c-0.7-11.5-1.4-23-2.1-34.6
		c-0.9-14.5-1.8-28.9-2.6-43.4c-0.1-1.6-0.2-3.1-0.3-4.9c-0.4,0.5-0.7,0.7-0.9,1c-6.5,8-12.9,16-19.4,23.9C0,105.7,0,106.1,0,106.7
		c0.5,4.8,0.9,9.6,1.3,14.4c0.9,10.3,1.8,20.5,2.7,30.8c1,11.1,2,22.2,3,33.3c1,11,2,22,2.9,33.1c0.1,0.8,0.4,0.9,1.1,0.8
		c2-0.3,4-0.5,6.1-0.8c10.5-1.4,21-2.8,31.5-4.2c0.6-0.1,1-0.3,1.3-0.8c1.8-2.8,5.3-3.4,7.8-1.4c2.4,1.9,2.7,5.9,0.6,8.1
		c-2.2,2.3-5.8,2.2-7.9-0.3c-0.4-0.5-0.7-0.5-1.3-0.5c-8.1,1.1-16.2,2.2-24.2,3.3c-4.4,0.6-8.9,1.2-13.3,1.8c-0.4,0.1-1-0.1-0.9,0.8
		c0.4,4.4,0.8,8.8,1.2,13.1c0.1,0.7,0.3,0.8,1,0.7c9.5-0.5,18.9-0.9,28.4-1.3c0.9,0,1.5,0.1,2.1,0.8c4.4,5,8.9,10,13.3,15
		c0.5,0.6,1,0.8,1.7,0.8c2.5-0.1,4.6,1.7,5.2,4.2c0.6,2.5-0.5,5-2.7,6.1c-1.9,1-3.9,0.9-5.7-0.4c-1.9-1.4-2.5-3.5-2-5.8
		c0.1-0.6,0.1-0.9-0.3-1.4c-3.9-4.4-7.9-8.8-11.8-13.3c-0.5-0.6-1-0.8-1.7-0.8c-8.6,0.4-17.2,0.8-25.7,1.2c-0.9,0-1.1,0.3-1,1.2
		c0.5,4.9,0.9,9.8,1.4,14.7c0.1,0.7,0.3,1.1,0.8,1.5c17.5,14.3,35,28.6,52.6,43c0.7,0.6,1.5,1,2.4,1c8.8,0.7,17.5,1.4,26.3,2.2
		c0.8,0.1,0.8-0.4,1-0.9c1.4-4.1,2.7-8.2,4.2-12.3c0.4-1,0.1-1.4-0.7-2c-8.4-5.5-16.8-11-25.2-16.4c-0.5-0.3-0.8-0.7-0.9-1.4
		c-0.5-3.1-1-6.2-1.5-9.3c-1.6-10.3-3.3-20.7-4.9-31c-1.7-10.9-3.4-21.9-5.2-32.8c-1.1-7.3-2.3-14.5-3.5-21.8
		c-0.1-0.6-0.1-1,0.4-1.5c5.6-5.7,11.2-11.5,16.7-17.2c2.3-2.4,4.7-4.8,7-7.3c-0.5-0.3-0.8-0.6-1.2-0.9c-4.4-3.1-8.8-6.3-13.2-9.4
		c-0.4-0.3-0.8-0.5-0.4-1.2c4.3-8.3,8.6-16.6,12.9-25c0.3-0.5,0.6-0.7,1.2-0.7c1.9,0.2,3.8,0.4,5.7,0.6c5.9,0.6,11.8,1.2,17.7,1.8
		c0.8,0.1,1.3,0.3,1.6,1.1c3.1,6,6.2,12,9.3,18.1c0.4,0.7,0.7,0.8,1.5,0.6c14.9-4.6,29.9-9.2,44.8-13.8c0.8-0.3,1.6-0.2,2.4,0.1
		c13.5,4.9,27.1,9.8,40.6,14.8c0.8,0.3,1.2,0.2,1.6-0.6c2.2-4.7,4.5-9.4,6.7-14.2c0.3-0.6,0.6-0.8,1.2-0.9c3-0.3,6-0.7,8.9-1
		c6.7-0.8,13.5-1.5,20.2-2.3c0.7-0.1,1.1,0.1,1.4,0.8c2.7,5.5,5.5,11,8.3,16.5c0.3,0.6,0.3,1-0.1,1.6c-4.1,5.3-8.1,10.5-12.1,15.8
		c-0.5,0.7-0.5,1.1,0,1.8c6.3,8.9,12.6,17.8,18.9,26.7c0.5,0.7,0.6,1.4,0.4,2.2c-3.8,17.2-7.6,34.4-11.5,51.5
		c-3.6,16.1-7.2,32.3-10.7,48.4c-0.1,0.6-0.4,1-1,1.4c-5.8,4.2-11.6,8.5-17.4,12.8c-0.5,0.3-1,0.6-0.7,1.4
		c1.9,5.4,3.8,10.8,5.6,16.2c0.2,0.5,0.5,0.7,1,0.8c7.6,0.6,15.2,1.2,22.8,1.9c0.7,0.1,1.2-0.1,1.7-0.6c3.3-3.2,6.7-6.3,10.1-9.4
		c18-16.7,36-33.5,54.1-50.1c2.3-2.1,3.7-4.2,3.2-7.4c-0.1-0.5,0.1-1.1,0.1-1.7c0.2-10.4,0.3-20.8,0.5-31.2
		c0.2-10.4,0.3-20.7,0.5-31.1c0-0.5,0-0.8-0.7-0.8c-5.2,0.3-10.5,0.5-15.7,0.7c-0.8,0-1,0.4-1.1,1.1c-0.6,6.3-1.3,12.6-2,18.8
		c-0.7,6.4-1.4,12.7-2,19.1c-0.7,6.2-1.3,12.5-2,18.7c-0.1,0.5,0,0.9,0.5,1.2c1.4,1.1,2,2.6,2,4.4c0,2.6-1.7,4.7-4.1,5.2
		c-2.5,0.5-4.9-0.7-6-2.9c-1.1-2.3-0.5-5.2,1.4-6.6c0.8-0.6,1.1-1.2,1.2-2c0.9-8.3,1.8-16.7,2.7-25c1.1-10.2,2.2-20.4,3.3-30.6
		c0.1-0.8,0-1-0.8-0.9c-4.2,0.2-8.4,0.4-12.6,0.5c-1.2,0-1.7,0.4-1.9,1.6c-2.1,12.7-4.2,25.5-6.3,38.2c-2.1,12.8-4.3,25.5-6.4,38.3
		c-0.2,0.9-0.1,1.6,0.6,2.4c2,2.4,1.5,6-1,7.8c-2.5,1.8-5.9,1.1-7.6-1.4c-1.7-2.7-0.9-6.2,1.9-7.8c0.5-0.3,0.7-0.6,0.8-1.2
		c1.3-8,2.7-16.1,4-24.1c1.8-10.9,3.6-21.7,5.4-32.6c1.4-8.5,2.8-17.1,4.2-25.7c0.1-0.5,0.2-0.6,0.7-0.7c5.2-0.2,10.4-0.4,15.6-0.6
		c8.3-0.4,16.5-0.8,24.8-1.1c0.9,0,1.2-0.3,1.2-1.2c0-3,0.1-6.1,0.2-9.1c0.2-10.6,0.3-21.1,0.5-31.7c0.1-9.1,0.3-18.2,0.4-27.3
		c0-0.7,0-1.1-1-0.8c-5.8,2-11.7,4-17.5,6c-1.2,0.4-2.8,0.5-3.5,1.4c-0.7,0.9,0,2.4,0,3.7c0,0.1,0,0.2,0,0.4
		c0.3,7.9,0.7,15.8,1,23.7c0,0.7,0.2,1.3,0.9,1.7c2.7,1.6,3.3,5.4,1.4,8c-1.8,2.4-5.5,2.8-7.8,0.8c-2.3-2-2.5-5.9-0.2-8
		c0.5-0.5,0.6-0.9,0.5-1.4c-0.5-10-1-19.9-1.4-29.9c0-0.9-0.6-1.9-0.1-2.6c0.5-0.7,1.7-0.5,2.5-0.8c8-2.8,16-5.5,24-8.2
		c0.9-0.3,1.2-0.7,1.2-1.6c0-5.4,0.1-10.7,0.2-16.1c0-1.8,0-3.5,0-5.5c-0.5,0.3-0.8,0.5-1.2,0.7c-16,9.3-32,18.6-48.1,27.8
		c-1,0.6-1.2,1.1-1.1,2.2c0.6,11.4,1.1,22.7,1.6,34.1c0,0.6,0.2,1.1,0.7,1.5c2.5,1.9,2.9,5.6,0.8,8c-2,2.3-5.6,2.4-7.7,0.4
		c-2.2-2.1-2.2-6,0.1-8c0.7-0.6,0.9-1.2,0.8-2c-0.5-11.2-1-22.4-1.5-33.6c-0.1-1.2,0.1-2.4-0.4-3.5C265.3,111,265.7,110.1,266.6,110
		z"/>
</g>
<g id="Layer_3">
</g>
</svg>
