<?xml version="1.0" encoding="utf-8"?>
<!-- Generator: Adobe Illustrator 21.0.0, SVG Export Plug-In . SVG Version: 6.00 Build 0)  -->
<svg version="1.1" id="Layer_1" xmlns="http://www.w3.org/2000/svg" xmlns:xlink="http://www.w3.org/1999/xlink" x="0px" y="0px"
	 viewBox="0 0 339 252" enable-background="new 0 0 339 252" xml:space="preserve">
<path fill="#003262" d="M169.4,194.8c-45.8,0-91.6,0-137.5,0c-1.1,0-2.3,0.2-3.2-0.1c-0.8-0.3-1.6-1.1-2-1.9
	c-0.3-0.7-0.1-1.6-0.1-2.5c0-52.2,0-104.3,0.1-156.5c0-7.4-0.3-6.2,6.1-6.2c91.6,0,183.1,0,274.7,0c4.7,0,4.8,0,4.8,4.8
	c0,53,0,106,0.1,159c0,3.3-0.2,3.4-3.9,3.4C262.1,194.8,215.8,194.8,169.4,194.8z"/>
<path fill="#003262" d="M169.6,0.3c55.1,0,110.3,0,165.4,0c3.9,0,3.9,0,3.9,3.8c0,3.7,0,7.3,0,11c0,1.7-0.7,2.5-2.4,2.5
	c-1,0-2,0-3,0c-109.4,0-218.7,0-328.1,0C-0.6,17.6,0,18,0,12.1C0,9,0.1,5.9,0,2.8c-0.1-1.9,0.7-2.7,2.6-2.5c0.7,0.1,1.5,0,2.2,0
	C59.7,0.3,114.7,0.3,169.6,0.3z"/>
<path fill="#003262" d="M169.5,204.8c50.2,0,100.5,0,150.7,0c3.8,0,3.8,0,3.8,3.9c0,5.7,0.6,5.2-5.2,5.2c-47.2,0-94.3,0-141.5,0
	c-4.2,0-4.2,0-4.2,4.3c0,0.4,0,0.8,0,1.2c-0.4,3.7,0.2,6.3,4.1,8.5c5.6,3.2,7.2,10.4,4.6,16.3c-2.6,5.7-9,9-15,7.7
	c-6.2-1.4-10.9-7.4-10.5-13.7c0.3-5,2.6-9,7.1-11.3c2.2-1.1,2.9-2.4,2.7-4.7c-0.2-1.9-0.1-3.8,0-5.7c0.1-2-0.8-2.7-2.7-2.6
	c-0.9,0.1-1.8,0-2.7,0c-46.7,0-93.5,0-140.2,0c-0.9,0-1.8-0.1-2.7,0c-1.8,0.1-2.6-0.6-2.5-2.5c0.2-8-1-6.6,6.3-6.6
	C70.7,204.8,120.1,204.8,169.5,204.8z M161.9,238.7c0,4.3,3.2,7.6,7.5,7.7c4.4,0.1,7.7-3.3,7.7-7.7c0-4.3-3.2-7.6-7.5-7.6
	C165.2,231,161.9,234.2,161.9,238.7z"/>
<path fill="#FFFFFF" d="M161.9,238.7c0-4.4,3.3-7.7,7.7-7.7c4.3,0,7.5,3.3,7.5,7.6c0,4.4-3.3,7.7-7.7,7.7
	C165.1,246.2,161.9,243,161.9,238.7z"/>
</svg>
